{
    "accessors": [
        {
            "bufferView": 0,
            "byteOffset": 0,
            "componentType": 5123,
            "count": 7980,
            "type": "SCALAR",
            "max": [
                7681
            ],
            "min": [
                0
            ]
        },
        {
            "bufferView": 1,
            "byteOffset": 0,
            "componentType": 5126,
            "count": 7682,
            "type": "VEC3",
            "max": [
                10.02076530456543,
                10.069000244140625,
                10.606735229492188
            ],
            "min": [
                -11.486934661865234,
                -10.109999656677246,
                -10.070564270019531
            ],
            "name": "POSITION"
        },
        {
            "bufferView": 1,
            "byteOffset": 12,
            "componentType": 5126,
            "count": 7682,
            "type": "VEC3",
            "max": [
                0.9982660412788391,
                0.9988527894020081,
                0.9984645843505859
            ],
            "min": [
                -1.0000044107437134,
                -0.9995212554931641,
                -1.0000044107437134
            ],
            "name": "NORMAL"
        },
        {
            "bufferView": 1,
            "byteOffset": 24,
            "componentType": 5126,
            "count": 7682,
            "type": "VEC2",
            "max": [
                1.000599980354309,
                1.0010000467300415
            ],
            "min": [
                0,
                0
            ],
            "name": "TEXCOORD_0"
        }
    ],
    "asset": {
        "generator": "Aspose.3D 24.1.0",
        "version": "2.0"
    },
    "buffers": [
        {
            "uri": "data:application/octet-stream;base64,",
            "byteLength": 271328
        }
    ],
    "bufferViews": [
        {
            "buffer": 0,
            "byteOffset": 0,
            "byteLength": 15960,
            "target": 34963
        },
        {
            "buffer": 0,
            "byteOffset": 15964,
            "byteLength": 255360,
            "byteStride": 32,
            "target": 34962
        }
    ],
    "images": [
        {
            "uri": "textures/Material__25__background_JPG_002_emissive.png"
        }
    ],
    "materials": [
        {
            "name": "Material__25__background_JPG_002",
            "pbrMetallicRoughness": {
                "baseColorFactor": [
                    0.6704,
                    0.6704,
                    0.6704,
                    1.0
                ],
                "baseColorTexture": {
                    "index": 0,
                    "texCoord": 0
                },
                "metallicFactor": 0,
                "roughnessFactor": 1
            },
            "emissiveFactor": [
                0,0,0
            ],
            "alphaMode": "OPAQUE",
            "doubleSided": true
        }
    ],
    "meshes": [
        {
            "primitives": [
                {
                    "attributes": {
                        "POSITION": 1,
                        "NORMAL": 2,
                        "TEXCOORD_0": 3
                    },
                    "indices": 0,
                    "material": 0,
                    "mode": 4
                }
            ],
            "name": "Object001"
        }
    ],
    "nodes": [
        {
            "matrix": [
                1,
                0,
                0,
                0,
                0,
                0.9999999999999867,
                1.6292068494972796E-07,
                0,
                0,
                -1.6292068494972796E-07,
                0.9999999999999867,
                0,
                0,
                0,
                0,
                1
            ],
            "mesh": 0,
            "name": "Object001"
        }
    ],
    "samplers": [
        {
            "magFilter": 9729,
            "minFilter": 9729,
            "wrapS": 10497,
            "wrapT": 10497
        }
    ],
    "scene": 0,
    "scenes": [
        {
            "nodes": [
                0
            ]
        }
    ],
    "textures": [
        {
            "sampler": 0,
            "source": 0,
            "name": "background_JPG_002"
        }
    ]
}